{
    "asset": {
        "copyright": "2020 (c) Adobe Inc.",
        "generator": "Adobe Dimension - 611127eacd250f22943d21b3c2c9dbaa3a0ef9a2",
        "version": "2.0"
    },
    "accessors": [
        {
            "bufferView": 0,
            "componentType": 5126,
            "count": 6320,
            "type": "VEC3",
            "max": [
                0.030202629044651986,
                0.06040523946285248,
                0.03020263835787773
            ],
            "min": [
                -0.030202629044651986,
                0.0,
                -0.03020263835787773
            ]
        },
        {
            "bufferView": 1,
            "componentType": 5126,
            "count": 6320,
            "type": "VEC3"
        },
        {
            "bufferView": 2,
            "componentType": 5126,
            "count": 6320,
            "type": "VEC2"
        },
        {
            "bufferView": 3,
            "componentType": 5125,
            "count": 9360,
            "type": "SCALAR",
            "max": [
                6319.0
            ],
            "min": [
                0.0
            ]
        }
    ],
    "bufferViews": [
        {
            "buffer": 0,
            "byteOffset": 0,
            "byteLength": 75840,
            "target": 34962
        },
        {
            "buffer": 0,
            "byteOffset": 75840,
            "byteLength": 75840,
            "target": 34962
        },
        {
            "buffer": 0,
            "byteOffset": 151680,
            "byteLength": 50560,
            "target": 34962
        },
        {
            "buffer": 0,
            "byteOffset": 202240,
            "byteLength": 37440,
            "target": 34963
        }
    ],
    "buffers": [
        {
            "byteLength": 239680,
            "uri": "moon_binary.bin"
        }
    ],
    "cameras": [
        {
            "perspective": {
                "znear": 0.000010000000656873454,
                "yfov": 0.6024156808853149,
                "zfar": 2.0,
                "aspectRatio": 1.3333333730697632
            },
            "type": "perspective",
            "name": "render_camera"
        }
    ],
    "images": [
        {
            "name": "earth_moon_Base_Color",
            "uri": "moon_images\\earth_moon_Base_Color.jpg",
            "mimeType": "image/jpeg"
        },
        {
            "name": "image",
            "uri": "moon_images\\image.png",
            "mimeType": "image/png"
        },
        {
            "name": "earth_moon_Normal",
            "uri": "moon_images\\earth_moon_Normal.png",
            "mimeType": "image/png"
        }
    ],
    "materials": [
        {
            "pbrMetallicRoughness": {
                "baseColorTexture": {
                    "index": 0
                },
                "metallicFactor": 0.0,
                "metallicRoughnessTexture": {
                    "index": 1
                }
            },
            "normalTexture": {
                "index": 2
            },
            "name": "earth_moon_MAT",
            "doubleSided": true
        }
    ],
    "meshes": [
        {
            "name": "earth_moon_GEO",
            "primitives": [
                {
                    "attributes": {
                        "POSITION": 0,
                        "NORMAL": 1,
                        "TEXCOORD_0": 2
                    },
                    "indices": 3,
                    "material": 0
                }
            ]
        }
    ],
    "nodes": [
        {
            "translation": [
                0.5,
                0.29999998211860659,
                0.5
            ],
            "rotation": [
                -0.12059047073125839,
                0.379409521818161,
                0.04995020851492882,
                0.9159756302833557
            ],
            "scale": [
                1.0,
                1.0,
                0.9999999403953552
            ],
            "camera": 0,
            "name": "render_camera_n3d"
        },
        {
            "mesh": 0,
            "name": "earth_moon_GEO"
        }
    ],
    "samplers": [
        {},
        {},
        {}
    ],
    "scenes": [
        {
            "nodes": [
                0,
                1
            ],
            "name": "scene"
        }
    ],
    "textures": [
        {
            "name": "earth_moon_MAT::baseColor::image",
            "sampler": 0,
            "source": 0
        },
        {
            "name": "image",
            "sampler": 1,
            "source": 1
        },
        {
            "name": "earth_moon_MAT::normal::image",
            "sampler": 2,
            "source": 2
        }
    ],
    "scene": 0
}